<svg xmlns="http://www.w3.org/2000/svg" version="1.1" xmlns:xlink="http://www.w3.org/1999/xlink" xmlns:svgjs="http://svgjs.dev/svgjs" width="100%" height="100%" viewBox="0 0 1000 600"><rect width="1000" height="600" x="0" y="0" fill="#ccf381"/><g><rect width="333.3333333333333" height="333.3333333333333" rx="13.333333333333334" ry="13.333333333333334" y="294.9209984946996" fill="#4831d4" transform="matrix(0.4583812368086698,0,0,0.45838123680866993,0,88.41687896240401)" x="272.6987915039062"/><path d="M503.0998092627209 488.8072539181644L503.0998092627209 488.8072539181644Q503.0182727560904 498.2926675228437 500.3819257083715 505.5765954485001Q497.7455786606526 512.8877022096999 493.0708189471717 518.2147539762248Q488.3960592336908 523.514626907206 482.09056938760017 527.1837697055776Q475.7850795415096 530.8529125039493 468.5283304513968 533.1087558540593Q461.2444025257405 535.3645992041693 453.2810037114968 535.962533586126Q445.29042606170964 536.5876468036265 437.272669576379 536.5876468036265L437.272669576379 536.5876468036265Q422.7591713961533 536.5876468036265 411.75174300103834 535.4461357107998L411.75174300103834 535.4461357107998Q405.4462531549478 534.6851283155819 392.94398880494066 531.2334162015582L392.94398880494066 531.2334162015582Q382.6975678050435 528.4611749761218 376.8812969987358 525.4171453952506L376.8812969987358 525.4171453952506L376.8812969987358 487.66574282533765L405.63650500375223 487.66574282533765Q410.6102319082116 494.5419882178416 416.86136408321516 497.8034484830609Q423.1396750937622 501.0377299127366 429.71695329528774 501.0377299127366L429.71695329528774 501.0377299127366Q431.4292199345278 501.0377299127366 433.5491691069203 500.7659415573017Q435.64193944376933 500.46697436632326 437.51727909627044 499.13521142469205Q439.365439913228 497.8034484830609 440.6700240193157 494.9224919154505Q441.94742928985994 492.0687141833837 441.94742928985994 486.90473543011984L441.94742928985994 486.90473543011984Q433.73942095572477 486.14372803490204 425.66730679930714 484.70324975109685Q417.59519264288946 483.28995030283517 410.2297282106027 480.7894974328338Q402.8642637783159 478.3162233983758 396.5044162611383 474.5383652578302Q390.17174757950426 470.7605071172846 385.52416670156686 465.4062765152163Q380.9037646591729 460.052045913148 378.267417611454 452.84965449412215Q375.63107056373514 445.6200842395528 375.63107056373514 436.161849470417L375.63107056373514 436.161849470417Q375.63107056373514 426.0513226482373 378.321775282541 418.3597121894286Q380.9853011658034 410.6681017306198 385.63288204374084 405.0692616086601Q390.2532840861348 399.4704214867004 396.5044162611383 395.80127868832875Q402.78272727168536 392.1321358899571 409.9851186907112 389.9306502109341Q417.21468894528056 387.7291645319111 424.9878359107198 387.1584089854977Q432.7881617117025 386.58765343908436 440.50695100605475 386.58765343908436L440.50695100605475 386.58765343908436Q451.78616775660464 386.58765343908436 460.8095411570446 387.4030185053892Q469.86009339302797 388.218383571694 477.11684248314083 389.9306502109341Q484.3735915732537 391.6429168501742 489.9724316952134 393.7900448581102Q495.5440929816296 395.93717286604624 499.9470643396756 397.9484066962648L499.9470643396756 397.9484066962648L499.9470643396756 435.2105902263947L471.1918563346592 435.2105902263947Q466.3268447723738 428.3343448338908 460.3475009528052 425.10006340421506Q454.3681571332366 421.8386031389958 448.062667287146 421.8386031389958L448.062667287146 421.8386031389958Q446.3504006479059 421.8386031389958 444.1489149688829 422.2734645076917Q441.94742928985994 422.70832587638756 440.0449108018153 424.28469833791024Q438.1423923137708 425.86107079943287 436.7834505365961 428.8507427092172Q435.4516875949649 431.867593454545 435.4516875949649 437.0315722078088L435.4516875949649 437.0315722078088Q452.16667145421354 437.6023277542222 464.8863664885686 440.67353617063696Q477.57888268738026 443.7175657515083 486.0586793769503 449.88716141988135Q494.5112972309768 456.0567570882544 498.8055532468489 465.6508860351077Q503.0998092627209 475.24501498196105 503.0998092627209 488.8072539181644Z " fill="#ccf381" transform="matrix(0.4583812368086698,0,0,0.45838123680866993,0,88.41687896240401)"/><path d="M689.3654377304218 431.0601611685185L689.3654377304218 390.4928413612648L775.6292786998694 390.4928413612648L775.6292786998694 431.0601611685185L763.3308527238197 433.42075951937164L763.3308527238197 450.32380943906065L812.6119861965683 450.32380943906065L812.6119861965683 433.42075951937164L800.3135602205186 431.0601611685185L800.3135602205186 389.9682639499641L886.5774011899662 389.9682639499641L886.5774011899662 431.0601611685185L874.2789752139165 433.42075951937164L874.2789752139165 491.5031362261651L886.5774011899662 493.86373457701825L886.5774011899662 534.7516294689556L800.3135602205186 534.7516294689556L800.3135602205186 493.86373457701825L812.6119861965683 491.5031362261651L812.6119861965683 474.39608397985916L763.3308527238197 474.39608397985916L763.3308527238197 491.5031362261651L775.6292786998694 493.86373457701825L775.6292786998694 534.7516294689556L689.3654377304218 534.7516294689556L689.3654377304218 493.86373457701825L701.6347205169548 491.5031362261651L701.6347205169548 433.42075951937164L689.3654377304218 431.0601611685185ZM987.0922618330824 536.5876504085081L987.0922618330824 536.5876504085081Q969.0526275222419 536.5876504085081 953.3444483727378 532.7407493923031Q937.6071260337169 528.9229915656147 925.9789934165516 519.5388845412356Q914.3508607993862 510.1547775168564 907.647927210544 495.61232594802055Q900.9158504321852 481.0698743791847 900.9158504321852 460.669641717491L900.9158504321852 460.669641717491Q900.9158504321852 440.70655689854794 907.647927210544 426.6012531724626Q914.3508607993862 412.525092635894 926.0372797955849 403.6655630228156Q937.6945556022671 394.8060334097372 953.3735915622544 390.69684368788177Q969.0526275222419 386.5876539660263 987.0922618330824 386.5876539660263L987.0922618330824 386.5876539660263Q1005.0153233858562 386.5876539660263 1020.752645724877 390.69684368788177Q1036.4608248743812 394.8060334097372 1048.2055302496133 403.6655630228156Q1059.9502356248454 412.525092635894 1066.711455592721 426.6012531724626Q1073.472675560597 440.70655689854794 1073.472675560597 460.669641717491L1073.472675560597 460.669641717491Q1073.472675560597 474.1920816532422 1070.383497471826 485.2082072905568Q1067.3234625725718 496.2243329278714 1061.7279701853645 504.7924306457827Q1056.1324777981572 513.3313851741773 1048.2929598181636 519.5388845412356Q1040.4825850276866 525.7463839082936 1030.8361892976568 529.7681440615991Q1021.2189367571443 533.8190474044211 1010.1445247407962 535.2179205012229Q999.0701127244483 536.5876504085081 987.0922618330824 536.5876504085081ZM987.0922618330824 430.2441518620507L987.0922618330824 430.2441518620507Q981.0304784136077 430.2441518620507 976.8921455022356 431.78874090643615Q972.7538125908634 433.3333299508215 970.0434959658098 435.7813578702248Q967.3040361512396 438.229385789628 965.788590296371 441.40599344694886Q964.2440012519855 444.5826011042697 963.5737078931013 447.93406789869084Q962.9034145342171 451.25639150359524 962.7576985866335 454.4912855399495Q962.61198263905 457.6970363867871 962.61198263905 460.174207495707L962.61198263905 460.174207495707Q962.61198263905 462.50566265704344 962.6994122076002 465.7405566933977Q962.815984965667 468.975450729752 963.4279919455178 472.5017766612733Q964.0399989253685 476.0572457823113 965.4680152116872 479.52528533479926Q966.8960314980056 483.02246807680393 969.6063481230593 485.7910710808909Q972.3458079376296 488.5305308954612 976.6007136070685 490.2208358874301Q980.8264760869909 491.911140879399 987.0922618330824 491.911140879399L987.0922618330824 491.911140879399Q993.2414748211072 491.911140879399 997.4963804905462 490.2791222664635Q1001.7512861599852 488.647103653528 1004.4616027850388 485.93678702847444Q1007.1719194100924 483.2264704034208 1008.7165084544777 479.845860419483Q1010.2319543093464 476.4652504355452 1010.9022476682305 473.026354072574Q1011.5725410271148 469.5874577096028 1011.7182569746983 466.3234204837318Q1011.8931161117986 463.03024006834414 1011.8931161117986 460.669641717491L1011.8931161117986 460.669641717491Q1011.8931161117986 458.22161379808773 1011.7182569746983 454.98671976173347Q1011.5725410271148 451.7518257253792 1010.9022476682305 448.3712157414414Q1010.2319543093464 444.9906057575036 1008.7165084544777 441.784854910666Q1007.1719194100924 438.54996087431175 1004.4616027850388 435.98536019684167Q1001.7512861599852 433.42075951937164 997.4963804905462 431.84702728546955Q993.2414748211072 430.2441518620507 987.0922618330824 430.2441518620507ZM1248.1569535237277 511.087359581391L1248.1569535237277 534.7516294689556L1186.868825970097 534.7516294689556Q1184.0127933974595 529.4184257873985 1180.923615308689 523.4440719364741Q1177.8635804094351 517.4405748960328 1175.0075478367976 510.8833572547741Q1172.1223720746439 504.3261396135154 1169.616057776207 497.36091731902286Q1167.1097434777707 490.3956950245303 1165.3611521067683 483.02246807680393L1165.3611521067683 483.02246807680393L1161.9805421228307 483.02246807680393L1161.9805421228307 534.7516294689556L1088.0151271294326 534.7516294689556L1088.0151271294326 493.86373457701825L1100.3135531054822 491.5031362261651L1100.3135531054822 433.2167571927547L1088.0151271294326 430.85615884190156L1088.0151271294326 390.4928413612648L1171.918369748027 390.4928413612648Q1188.617417341099 390.4928413612648 1200.7701273695652 391.9208576475834Q1212.8936942085147 393.3488739339019 1221.345219168359 396.11747693798895Q1229.7967441282035 398.886079942076 1235.0425182412105 402.8495537163478Q1240.2591491647008 406.78388430110306 1243.1734681163712 411.73822651894295Q1246.087787068042 416.7217119262996 1247.1369418906434 422.6669225877074Q1248.1569535237277 428.6121332491153 1248.1569535237277 435.2567804589241L1248.1569535237277 435.2567804589241Q1248.1569535237277 442.0180004267997 1246.874653184993 447.5552064349736Q1245.5923528462577 453.0924124431477 1242.2991724308704 457.6970363867871Q1239.0351352049993 462.3016603304265 1233.3522132492417 466.1485613466316Q1227.669291293484 469.9954623628367 1218.8389048699223 473.3760723467745L1218.8389048699223 473.3760723467745Q1220.7040689989917 477.07725741539605 1224.3178244990631 482.14817239130275Q1227.9607231886512 487.21908736720945 1232.2739152371237 492.4940046697331Q1236.557964096079 497.76892197225675 1240.812869765518 502.6941210005799Q1245.0677754349572 507.5901768393864 1248.1569535237277 511.087359581391L1248.1569535237277 511.087359581391ZM1161.9805421228307 417.9457258860012L1161.9805421228307 455.2490084673838Q1167.6051776995546 455.2490084673838 1172.1806584536776 454.69528786656645Q1176.7269960182834 454.11242407623234 1179.9618900546375 452.2181167576465Q1183.196784090992 450.32380943906065 1184.9453754619944 446.6517675599558Q1186.6648236434798 442.9505824913342 1186.6648236434798 436.7139399347593L1186.6648236434798 436.7139399347593Q1186.6648236434798 430.56472694673454 1184.9453754619944 426.8635418781129Q1183.196784090992 423.16235680949137 1179.9618900546375 421.18061992235545Q1176.7269960182834 419.1697398457028 1172.1806584536776 418.55773286585196Q1167.6051776995546 417.9457258860012 1161.9805421228307 417.9457258860012L1161.9805421228307 417.9457258860012ZM1298.6621009561782 491.5031362261651L1298.6621009561782 428.6121332491153Q1293.3288972746209 428.6121332491153 1289.2197075527656 430.04014953543384Q1285.139661020427 431.4681658217524 1282.3710580163397 433.62476184598853Q1279.602455012253 435.7813578702248 1278.1744387259341 438.2876721686614Q1276.7464224396158 440.793986467098 1276.7464224396158 442.9505824913342L1276.7464224396158 442.9505824913342L1259.6102270037932 442.9505824913342L1259.6102270037932 390.4928413612648L1399.3809639259111 390.4928413612648L1399.3809639259111 442.9505824913342L1382.2739116796051 442.9505824913342Q1382.2739116796051 440.793986467098 1380.8167522037702 438.2876721686614Q1379.3887359174514 435.7813578702248 1376.6201329133646 433.62476184598853Q1373.8515299092774 431.4681658217524 1369.7714833769387 430.04014953543384Q1365.6622936550834 428.6121332491153 1360.3290899735262 428.6121332491153L1360.3290899735262 428.6121332491153L1360.3290899735262 491.5031362261651L1372.6275159495758 493.86373457701825L1372.6275159495758 534.7516294689556L1286.3636749801285 534.7516294689556L1286.3636749801285 493.86373457701825L1298.6621009561782 491.5031362261651ZM1511.9611050289436 534.7516294689556L1462.6799715561951 459.0376231045555L1462.6799715561951 491.5031362261651L1475.0949702903113 493.7763050084681L1475.0949702903113 534.7516294689556L1413.3988380834462 534.7516294689556L1413.3988380834462 493.86373457701825L1425.6972640594963 491.5031362261651L1425.6972640594963 433.2167571927547L1413.3988380834462 430.85615884190156L1413.3988380834462 390.4928413612648L1487.393396266361 390.4928413612648L1536.6745297391094 468.2468709918343L1536.6745297391094 433.42075951937164L1524.3761037630597 430.85615884190156L1524.3761037630597 390.4928413612648L1585.9556632118579 390.4928413612648L1585.9556632118579 430.85615884190156L1573.6572372358087 433.2167571927547L1573.6572372358087 491.5031362261651L1585.9556632118579 493.86373457701825L1585.9556632118579 534.7516294689556L1511.9611050289436 534.7516294689556ZM1679.709303887099 431.67216814836934L1679.709303887099 453.9084217496154L1708.0656272868532 447.87578151965744L1708.0656272868532 477.07725741539605L1679.709303887099 470.9280444273712L1679.709303887099 493.5723026818512Q1685.8293736856067 493.5723026818512 1691.5705820203975 492.69800699635005Q1697.3117903551888 491.82371131084886 1702.236989383512 490.2791222664635Q1707.1621884118354 488.73453322207814 1711.2422349441736 486.6945099559088Q1715.3514246660293 484.6544866897394 1718.3240299967333 482.2938883388863L1718.3240299967333 482.2938883388863L1732.371047343785 482.2938883388863L1732.371047343785 534.7516294689556L1605.7147457041842 534.7516294689556L1605.7147457041842 493.86373457701825L1618.0131716802339 491.5031362261651L1618.0131716802339 433.42075951937164L1605.7147457041842 431.0601611685185L1605.7147457041842 390.4928413612648L1732.371047343785 390.4928413612648L1732.371047343785 442.9505824913342L1718.3240299967333 442.9505824913342Q1715.3514246660293 440.70655689854794 1711.2422349441736 438.6373904428619Q1707.1621884118354 436.5973671766925 1702.236989383512 435.05277813230714Q1697.3117903551888 433.53733227743845 1691.5705820203975 432.60475021290387Q1685.8293736856067 431.67216814836934 1679.709303887099 431.67216814836934L1679.709303887099 431.67216814836934ZM1908.8913462464684 511.087359581391L1908.8913462464684 534.7516294689556L1847.6323618823544 534.7516294689556Q1844.7471861202002 529.4184257873985 1841.6871512209464 523.4440719364741Q1838.5979731321759 517.4405748960328 1835.7419405595388 510.8833572547741Q1832.8567647973846 504.3261396135154 1830.3504504989478 497.36091731902286Q1827.8441362005115 490.3956950245303 1826.095544829509 483.02246807680393L1826.095544829509 483.02246807680393L1822.7149348455714 483.02246807680393L1822.7149348455714 534.7516294689556L1748.7495198521733 534.7516294689556L1748.7495198521733 493.86373457701825L1761.047945828223 491.5031362261651L1761.047945828223 433.2167571927547L1748.7495198521733 430.85615884190156L1748.7495198521733 390.4928413612648L1832.6527624707678 390.4928413612648Q1849.3518100638398 390.4928413612648 1861.504520092306 391.9208576475834Q1873.657230120772 393.3488739339019 1882.1087550806164 396.11747693798895Q1890.5602800404613 398.886079942076 1895.7769109639512 402.8495537163478Q1900.9935418874416 406.78388430110306 1903.907860839112 411.73822651894295Q1906.8513229802993 416.7217119262996 1907.871334613384 422.6669225877074Q1908.8913462464684 428.6121332491153 1908.8913462464684 435.2567804589241L1908.8913462464684 435.2567804589241Q1908.8913462464684 442.0180004267997 1907.6090459077336 447.5552064349736Q1906.3267455689984 453.0924124431477 1903.0627083431277 457.6970363867871Q1899.76952792774 462.3016603304265 1894.0866059719824 466.1485613466316Q1888.4036840162248 469.9954623628367 1879.60244078218 473.3760723467745L1879.60244078218 473.3760723467745Q1881.4384617217324 477.07725741539605 1885.0813604113205 482.14817239130275Q1888.695115911392 487.21908736720945 1893.0083079598644 492.4940046697331Q1897.321500008337 497.76892197225675 1901.5764056777757 502.6941210005799Q1905.8313113472145 507.5901768393864 1908.8913462464684 511.087359581391L1908.8913462464684 511.087359581391ZM1822.7149348455714 417.9457258860012L1822.7149348455714 455.2490084673838Q1828.368713611812 455.2490084673838 1832.9150511764178 454.69528786656645Q1837.4905319305408 454.11242407623234 1840.6962827773782 452.2181167576465Q1843.9311768137327 450.32380943906065 1845.6797681847352 446.6517675599558Q1847.4283595557372 442.9505824913342 1847.4283595557372 436.7139399347593L1847.4283595557372 436.7139399347593Q1847.4283595557372 430.56472694673454 1845.6797681847352 426.8635418781129Q1843.9311768137327 423.16235680949137 1840.6962827773782 421.18061992235545Q1837.4905319305408 419.1697398457028 1832.9150511764178 418.55773286585196Q1828.368713611812 417.9457258860012 1822.7149348455714 417.9457258860012L1822.7149348455714 417.9457258860012Z " fill="#4831d4" transform="matrix(0.4583812368086698,0,0,0.45838123680866993,0,88.41687896240401)"/></g></svg>